<svg width="1024" height="1024" viewBox="0 0 1024 1024" fill="none" xmlns="http://www.w3.org/2000/svg">
<rect width="1024" height="1024" fill="#FFC22A"/>
<path d="M904.022 699.071L904.023 699.071C912.063 693.401 918.028 685.162 921.256 675.747L909.904 671.855L921.256 675.747C924.482 666.338 924.87 656.077 922.386 646.432C922.386 646.432 922.386 646.431 922.386 646.431L803.548 184.865L803.548 184.864C801.751 177.886 798.485 171.373 793.928 165.875C789.367 160.372 783.618 156.016 777.078 153.263L772.422 164.323L777.078 153.263C770.529 150.507 763.432 149.463 756.381 150.261C749.334 151.058 742.637 153.66 736.819 157.762L736.818 157.762L606.411 249.702L606.411 249.703C598.284 255.433 589.201 259.053 579.817 260.39C570.437 261.726 560.894 260.762 551.84 257.538L369.731 192.686L369.73 192.686C357.094 188.186 343.679 186.804 330.46 188.664C317.244 190.523 304.636 195.564 293.518 203.348L293.517 203.349L120.096 324.788C120.096 324.788 120.096 324.788 120.095 324.788C112.017 330.445 106.019 338.69 102.769 348.121C99.5213 357.548 99.1234 367.835 101.613 377.503L220.468 839.137L220.468 839.137C222.262 846.104 225.52 852.606 230.065 858.098C234.613 863.595 240.347 867.949 246.871 870.709C253.404 873.472 260.485 874.529 267.526 873.751C274.563 872.974 281.255 870.397 287.076 866.322L287.078 866.321L444.529 756.071C444.53 756.071 444.53 756.071 444.53 756.071C452.643 750.391 461.698 746.808 471.05 745.493C480.398 744.177 489.905 745.146 498.926 748.358L681.037 813.208C693.719 817.725 707.185 819.101 720.449 817.212C733.71 815.323 746.353 810.231 757.488 802.38L904.022 699.071Z" fill="white" stroke="#FDA223" stroke-width="24" stroke-miterlimit="10"/>
<mask id="path-2-outside-1_4486_1056" maskUnits="userSpaceOnUse" x="497.099" y="67.0234" width="409.92" height="409.109" fill="black">
<rect fill="white" x="497.099" y="67.0234" width="409.92" height="409.109"/>
<path fill-rule="evenodd" clip-rule="evenodd" d="M591.821 149.649C569.696 151.46 558.445 174.767 567.93 191.425C571.863 198.332 573.054 206.427 571.359 214.11C569.605 222.06 571.808 230.305 577.452 237.203C582.639 243.542 585.826 252.53 584.114 262.235L574.68 315.742C571.578 333.333 578.436 351.837 593.595 364.071L649.655 409.316C664.901 421.62 685.835 425.311 704.37 418.964L772.524 395.621C790.953 389.309 803.726 374.267 806.828 356.676L816.263 303.169C817.974 293.464 824.042 286.108 831.085 281.925C838.748 277.374 843.638 270.379 844.709 262.309C845.744 254.509 849.631 247.31 855.689 242.164C870.3 229.755 867.699 204.006 847.528 194.737C840.55 191.531 835.027 185.928 831.88 179.059C826.144 166.538 810.877 159.12 795.857 161.803C787.656 163.269 779.246 161.449 772.412 156.827C771.05 155.905 769.564 155.062 767.947 154.319C760.957 151.108 755.443 145.5 752.302 138.643C743.625 119.701 715.121 114.675 700.489 129.507C695.192 134.876 688.093 138.26 680.426 138.887C678.653 139.032 676.968 139.316 675.373 139.716C667.37 141.722 658.845 140.556 651.639 136.374C638.443 128.715 621.559 130.464 611.887 140.268C606.581 145.646 599.474 149.022 591.821 149.649Z"/>
<path d="M698.904 202.351C709.122 198.632 720.547 200.647 728.877 207.636L783.556 253.517C791.886 260.506 795.854 271.408 793.965 282.117L781.571 352.411C779.683 363.119 772.225 372.006 762.008 375.725L694.934 400.138C684.716 403.857 673.291 401.842 664.961 394.853L610.282 348.972C601.952 341.983 597.984 331.081 599.873 320.373L612.267 250.078C614.156 239.37 621.613 230.483 631.83 226.764L698.904 202.351Z"/>
<path d="M795.435 182.846C798.895 176.338 808.662 178.06 809.688 185.359L811.814 200.489C812.273 203.753 814.781 206.351 818.027 206.923L833.074 209.577C840.333 210.857 841.713 220.677 835.089 223.908L821.356 230.606C818.393 232.051 816.698 235.24 817.157 238.504L819.283 253.634C820.309 260.933 811.395 265.281 806.275 259.979L795.661 248.988C793.372 246.617 789.815 245.99 786.853 247.435L773.12 254.133C766.495 257.364 759.606 250.23 763.066 243.722L770.239 230.231C771.787 227.321 771.284 223.745 768.995 221.374L758.381 210.383C753.261 205.081 757.917 196.324 765.175 197.604L780.222 200.257C783.469 200.83 786.714 199.247 788.262 196.336L795.435 182.846Z"/>
<path fill-rule="evenodd" clip-rule="evenodd" d="M826.114 192.897L835.717 194.59C857.493 198.43 861.634 227.892 841.759 237.586L832.995 241.86L834.352 251.516C837.43 273.413 810.689 286.456 795.329 270.55L788.555 263.535L779.791 267.81C759.916 277.503 739.249 256.101 749.63 236.578L754.208 227.968L747.434 220.954C732.074 205.047 746.042 178.778 767.818 182.618L777.421 184.311L781.999 175.702C792.38 156.178 821.679 161.344 824.757 183.241L826.114 192.897ZM809.688 185.359C808.662 178.06 798.895 176.338 795.435 182.846L788.262 196.336C786.714 199.247 783.469 200.83 780.222 200.257L765.175 197.604C757.917 196.324 753.261 205.081 758.381 210.383L768.995 221.374C771.284 223.745 771.787 227.321 770.239 230.231L763.066 243.722C759.606 250.23 766.495 257.364 773.12 254.133L786.853 247.435C789.815 245.99 793.372 246.617 795.661 248.988L806.275 259.979C811.395 265.281 820.309 260.933 819.283 253.634L817.157 238.504C816.698 235.24 818.393 232.051 821.356 230.606L835.089 223.908C841.713 220.677 840.333 210.857 833.074 209.577L818.027 206.923C814.781 206.351 812.273 203.753 811.814 200.489L809.688 185.359Z"/>
<path d="M717.635 142.086C721.095 135.578 730.862 137.3 731.888 144.599L734.014 159.73C734.473 162.994 736.981 165.592 740.228 166.164L755.275 168.817C762.533 170.097 763.914 179.918 757.289 183.149L743.556 189.847C740.593 191.292 738.898 194.48 739.357 197.744L741.483 212.875C742.509 220.174 733.595 224.521 728.475 219.219L717.862 208.228C715.572 205.857 712.016 205.23 709.053 206.675L695.32 213.373C688.695 216.604 681.806 209.47 685.267 202.962L692.44 189.472C693.987 186.561 693.485 182.985 691.195 180.614L680.581 169.623C675.461 164.321 680.117 155.565 687.376 156.845L702.423 159.498C705.669 160.07 708.914 158.487 710.462 155.577L717.635 142.086Z"/>
<path fill-rule="evenodd" clip-rule="evenodd" d="M748.314 152.138L757.917 153.831C779.693 157.671 783.834 187.133 763.96 196.826L755.195 201.101L756.553 210.757C759.63 232.654 732.889 245.696 717.529 229.79L710.755 222.776L701.991 227.05C682.117 236.744 661.449 215.342 671.83 195.818L676.408 187.209L669.635 180.194C654.274 164.288 668.242 138.019 690.018 141.859L699.621 143.552L704.199 134.942C714.58 115.418 743.88 120.585 746.957 142.481L748.314 152.138ZM731.888 144.599C730.862 137.3 721.095 135.578 717.635 142.086L710.462 155.577C708.914 158.487 705.669 160.07 702.423 159.498L687.376 156.845C680.117 155.565 675.461 164.321 680.581 169.623L691.195 180.614C693.485 182.985 693.987 186.561 692.44 189.472L685.267 202.962C681.806 209.47 688.695 216.604 695.32 213.373L709.053 206.675C712.016 205.23 715.572 205.857 717.862 208.228L728.475 219.219C733.595 224.521 742.509 220.174 741.483 212.875L739.357 197.744C738.898 194.48 740.593 191.292 743.556 189.847L757.289 183.149C763.914 179.918 762.533 170.097 755.275 168.817L740.228 166.164C736.981 165.592 734.473 162.994 734.014 159.73L731.888 144.599Z"/>
<path d="M630.587 153.778C634.047 147.27 643.813 148.993 644.839 156.292L646.966 171.422C647.424 174.686 649.933 177.284 653.179 177.856L668.226 180.509C675.485 181.789 676.865 191.61 670.24 194.841L656.508 201.539C653.545 202.984 651.85 206.172 652.308 209.437L654.435 224.567C655.461 231.866 646.547 236.214 641.427 230.911L630.813 219.921C628.523 217.549 624.967 216.922 622.004 218.367L608.272 225.065C601.647 228.296 594.758 221.163 598.218 214.655L605.391 201.164C606.939 198.253 606.436 194.678 604.146 192.306L593.533 181.316C588.413 176.013 593.068 167.257 600.327 168.537L615.374 171.19C618.62 171.763 621.866 170.18 623.413 167.269L630.587 153.778Z"/>
<path fill-rule="evenodd" clip-rule="evenodd" d="M661.266 163.83L670.869 165.523C692.645 169.363 696.785 198.825 676.911 208.518L668.147 212.793L669.504 222.449C672.581 244.346 645.841 257.389 630.48 241.482L623.707 234.468L614.943 238.743C595.068 248.436 574.401 227.034 584.782 207.51L589.36 198.901L582.586 191.886C567.226 175.98 581.193 149.711 602.97 153.551L612.573 155.244L617.15 146.634C627.531 127.11 656.831 132.277 659.909 154.174L661.266 163.83ZM644.839 156.292C643.813 148.993 634.047 147.27 630.587 153.778L623.413 167.269C621.866 170.18 618.62 171.763 615.374 171.19L600.327 168.537C593.068 167.257 588.413 176.013 593.533 181.316L604.146 192.306C606.436 194.678 606.939 198.253 605.391 201.164L598.218 214.655C594.758 221.163 601.647 228.296 608.272 225.065L622.004 218.367C624.967 216.922 628.523 217.549 630.813 219.921L641.427 230.911C646.547 236.214 655.461 231.866 654.435 224.567L652.308 209.437C651.85 206.172 653.545 202.984 656.508 201.539L670.24 194.841C676.865 191.61 675.485 181.789 668.226 180.509L653.179 177.856C649.933 177.284 647.424 174.686 646.966 171.422L644.839 156.292Z"/>
</mask>
<path fill-rule="evenodd" clip-rule="evenodd" d="M591.821 149.649C569.696 151.46 558.445 174.767 567.93 191.425C571.863 198.332 573.054 206.427 571.359 214.11C569.605 222.06 571.808 230.305 577.452 237.203C582.639 243.542 585.826 252.53 584.114 262.235L574.68 315.742C571.578 333.333 578.436 351.837 593.595 364.071L649.655 409.316C664.901 421.62 685.835 425.311 704.37 418.964L772.524 395.621C790.953 389.309 803.726 374.267 806.828 356.676L816.263 303.169C817.974 293.464 824.042 286.108 831.085 281.925C838.748 277.374 843.638 270.379 844.709 262.309C845.744 254.509 849.631 247.31 855.689 242.164C870.3 229.755 867.699 204.006 847.528 194.737C840.55 191.531 835.027 185.928 831.88 179.059C826.144 166.538 810.877 159.12 795.857 161.803C787.656 163.269 779.246 161.449 772.412 156.827C771.05 155.905 769.564 155.062 767.947 154.319C760.957 151.108 755.443 145.5 752.302 138.643C743.625 119.701 715.121 114.675 700.489 129.507C695.192 134.876 688.093 138.26 680.426 138.887C678.653 139.032 676.968 139.316 675.373 139.716C667.37 141.722 658.845 140.556 651.639 136.374C638.443 128.715 621.559 130.464 611.887 140.268C606.581 145.646 599.474 149.022 591.821 149.649Z" fill="white"/>
<path d="M698.904 202.351C709.122 198.632 720.547 200.647 728.877 207.636L783.556 253.517C791.886 260.506 795.854 271.408 793.965 282.117L781.571 352.411C779.683 363.119 772.225 372.006 762.008 375.725L694.934 400.138C684.716 403.857 673.291 401.842 664.961 394.853L610.282 348.972C601.952 341.983 597.984 331.081 599.873 320.373L612.267 250.078C614.156 239.37 621.613 230.483 631.83 226.764L698.904 202.351Z" fill="#9480B3"/>
<path d="M795.435 182.846C798.895 176.338 808.662 178.06 809.688 185.359L811.814 200.489C812.273 203.753 814.781 206.351 818.027 206.923L833.074 209.577C840.333 210.857 841.713 220.677 835.089 223.908L821.356 230.606C818.393 232.051 816.698 235.24 817.157 238.504L819.283 253.634C820.309 260.933 811.395 265.281 806.275 259.979L795.661 248.988C793.372 246.617 789.815 245.99 786.853 247.435L773.12 254.133C766.495 257.364 759.606 250.23 763.066 243.722L770.239 230.231C771.787 227.321 771.284 223.745 768.995 221.374L758.381 210.383C753.261 205.081 757.917 196.324 765.175 197.604L780.222 200.257C783.469 200.83 786.714 199.247 788.262 196.336L795.435 182.846Z" fill="#FFC22A"/>
<path fill-rule="evenodd" clip-rule="evenodd" d="M826.114 192.897L835.717 194.59C857.493 198.43 861.634 227.892 841.759 237.586L832.995 241.86L834.352 251.516C837.43 273.413 810.689 286.456 795.329 270.55L788.555 263.535L779.791 267.81C759.916 277.503 739.249 256.101 749.63 236.578L754.208 227.968L747.434 220.954C732.074 205.047 746.042 178.778 767.818 182.618L777.421 184.311L781.999 175.702C792.38 156.178 821.679 161.344 824.757 183.241L826.114 192.897ZM809.688 185.359C808.662 178.06 798.895 176.338 795.435 182.846L788.262 196.336C786.714 199.247 783.469 200.83 780.222 200.257L765.175 197.604C757.917 196.324 753.261 205.081 758.381 210.383L768.995 221.374C771.284 223.745 771.787 227.321 770.239 230.231L763.066 243.722C759.606 250.23 766.495 257.364 773.12 254.133L786.853 247.435C789.815 245.99 793.372 246.617 795.661 248.988L806.275 259.979C811.395 265.281 820.309 260.933 819.283 253.634L817.157 238.504C816.698 235.24 818.393 232.051 821.356 230.606L835.089 223.908C841.713 220.677 840.333 210.857 833.074 209.577L818.027 206.923C814.781 206.351 812.273 203.753 811.814 200.489L809.688 185.359Z" fill="white"/>
<path d="M717.635 142.086C721.095 135.578 730.862 137.3 731.888 144.599L734.014 159.73C734.473 162.994 736.981 165.592 740.228 166.164L755.275 168.817C762.533 170.097 763.914 179.918 757.289 183.149L743.556 189.847C740.593 191.292 738.898 194.48 739.357 197.744L741.483 212.875C742.509 220.174 733.595 224.521 728.475 219.219L717.862 208.228C715.572 205.857 712.016 205.23 709.053 206.675L695.32 213.373C688.695 216.604 681.806 209.47 685.267 202.962L692.44 189.472C693.987 186.561 693.485 182.985 691.195 180.614L680.581 169.623C675.461 164.321 680.117 155.565 687.376 156.845L702.423 159.498C705.669 160.07 708.914 158.487 710.462 155.577L717.635 142.086Z" fill="#FFC22A"/>
<path fill-rule="evenodd" clip-rule="evenodd" d="M748.314 152.138L757.917 153.831C779.693 157.671 783.834 187.133 763.96 196.826L755.195 201.101L756.553 210.757C759.63 232.654 732.889 245.696 717.529 229.79L710.755 222.776L701.991 227.05C682.117 236.744 661.449 215.342 671.83 195.818L676.408 187.209L669.635 180.194C654.274 164.288 668.242 138.019 690.018 141.859L699.621 143.552L704.199 134.942C714.58 115.418 743.88 120.585 746.957 142.481L748.314 152.138ZM731.888 144.599C730.862 137.3 721.095 135.578 717.635 142.086L710.462 155.577C708.914 158.487 705.669 160.07 702.423 159.498L687.376 156.845C680.117 155.565 675.461 164.321 680.581 169.623L691.195 180.614C693.485 182.985 693.987 186.561 692.44 189.472L685.267 202.962C681.806 209.47 688.695 216.604 695.32 213.373L709.053 206.675C712.016 205.23 715.572 205.857 717.862 208.228L728.475 219.219C733.595 224.521 742.509 220.174 741.483 212.875L739.357 197.744C738.898 194.48 740.593 191.292 743.556 189.847L757.289 183.149C763.914 179.918 762.533 170.097 755.275 168.817L740.228 166.164C736.981 165.592 734.473 162.994 734.014 159.73L731.888 144.599Z" fill="white"/>
<path d="M630.587 153.778C634.047 147.27 643.813 148.993 644.839 156.292L646.966 171.422C647.424 174.686 649.933 177.284 653.179 177.856L668.226 180.509C675.485 181.789 676.865 191.61 670.24 194.841L656.508 201.539C653.545 202.984 651.85 206.172 652.308 209.437L654.435 224.567C655.461 231.866 646.547 236.214 641.427 230.911L630.813 219.921C628.523 217.549 624.967 216.922 622.004 218.367L608.272 225.065C601.647 228.296 594.758 221.163 598.218 214.655L605.391 201.164C606.939 198.253 606.436 194.678 604.146 192.306L593.533 181.316C588.413 176.013 593.068 167.257 600.327 168.537L615.374 171.19C618.62 171.763 621.866 170.18 623.413 167.269L630.587 153.778Z" fill="#FFC22A"/>
<path fill-rule="evenodd" clip-rule="evenodd" d="M661.266 163.83L670.869 165.523C692.645 169.363 696.785 198.825 676.911 208.518L668.147 212.793L669.504 222.449C672.581 244.346 645.841 257.389 630.48 241.482L623.707 234.468L614.943 238.743C595.068 248.436 574.401 227.034 584.782 207.51L589.36 198.901L582.586 191.886C567.226 175.98 581.193 149.711 602.97 153.551L612.573 155.244L617.15 146.634C627.531 127.11 656.831 132.277 659.909 154.174L661.266 163.83ZM644.839 156.292C643.813 148.993 634.047 147.27 630.587 153.778L623.413 167.269C621.866 170.18 618.62 171.763 615.374 171.19L600.327 168.537C593.068 167.257 588.413 176.013 593.533 181.316L604.146 192.306C606.436 194.678 606.939 198.253 605.391 201.164L598.218 214.655C594.758 221.163 601.647 228.296 608.272 225.065L622.004 218.367C624.967 216.922 628.523 217.549 630.813 219.921L641.427 230.911C646.547 236.214 655.461 231.866 654.435 224.567L652.308 209.437C651.85 206.172 653.545 202.984 656.508 201.539L670.24 194.841C676.865 191.61 675.485 181.789 668.226 180.509L653.179 177.856C649.933 177.284 647.424 174.686 646.966 171.422L644.839 156.292Z" fill="white"/>
<path d="M788.262 196.336L777.666 190.703L777.666 190.703L788.262 196.336ZM758.381 210.383L749.749 218.719L758.381 210.383ZM770.239 230.231L759.644 224.597L759.644 224.597L770.239 230.231ZM768.995 221.374L777.627 213.038L768.995 221.374ZM773.12 254.133L778.38 264.918L773.12 254.133ZM763.066 243.722L773.662 249.355L773.662 249.355L763.066 243.722ZM795.661 248.988L787.029 257.324L795.661 248.988ZM786.853 247.435L781.592 236.649L786.853 247.435ZM819.283 253.634L831.166 251.964L831.166 251.964L819.283 253.634ZM806.275 259.979L814.907 251.643L806.275 259.979ZM821.356 230.606L816.095 219.821L821.356 230.606ZM817.157 238.504L805.273 240.174L805.273 240.174L817.157 238.504ZM835.089 223.908L840.349 234.694L840.349 234.694L835.089 223.908ZM811.814 200.489L799.931 202.159L799.931 202.159L811.814 200.489ZM809.688 185.359L821.571 183.689L821.571 183.689L809.688 185.359ZM795.435 182.846L806.03 188.479L806.03 188.479L795.435 182.846ZM710.462 155.577L721.057 161.211L710.462 155.577ZM680.581 169.623L689.213 161.287L680.581 169.623ZM692.44 189.472L703.035 195.105L692.44 189.472ZM691.195 180.614L682.563 188.95L691.195 180.614ZM695.32 213.373L700.581 224.159L700.581 224.159L695.32 213.373ZM685.267 202.962L674.671 197.329L674.671 197.329L685.267 202.962ZM717.862 208.228L726.494 199.892L726.494 199.892L717.862 208.228ZM709.053 206.675L703.792 195.89L703.792 195.89L709.053 206.675ZM741.483 212.875L729.6 214.545L729.6 214.545L741.483 212.875ZM728.475 219.219L719.843 227.555L719.843 227.555L728.475 219.219ZM743.556 189.847L738.296 179.061L738.296 179.061L743.556 189.847ZM739.357 197.744L751.24 196.074L751.24 196.074L739.357 197.744ZM757.289 183.149L762.549 193.934L762.549 193.934L757.289 183.149ZM734.014 159.73L722.131 161.4L734.014 159.73ZM731.888 144.599L743.771 142.929L743.771 142.929L731.888 144.599ZM717.635 142.086L707.04 136.453L707.04 136.453L717.635 142.086ZM623.413 167.269L634.009 172.903L623.413 167.269ZM593.533 181.316L584.901 189.651L593.533 181.316ZM605.391 201.164L594.796 195.53L594.796 195.53L605.391 201.164ZM604.146 192.306L612.778 183.971L604.146 192.306ZM608.272 225.065L613.532 235.851L613.532 235.851L608.272 225.065ZM598.218 214.655L608.814 220.288L608.814 220.288L598.218 214.655ZM630.813 219.921L639.445 211.585L639.445 211.585L630.813 219.921ZM622.004 218.367L616.744 207.582L616.744 207.582L622.004 218.367ZM654.435 224.567L666.318 222.897L666.318 222.897L654.435 224.567ZM641.427 230.911L632.795 239.247L632.795 239.247L641.427 230.911ZM656.508 201.539L651.247 190.754L656.508 201.539ZM652.308 209.437L640.425 211.107L640.425 211.107L652.308 209.437ZM670.24 194.841L675.501 205.627L670.24 194.841ZM646.966 171.422L635.083 173.092L646.966 171.422ZM644.839 156.292L656.723 154.622L644.839 156.292ZM630.587 153.778L619.991 148.145L630.587 153.778ZM797.804 187.029L799.931 202.159L823.697 198.819L821.571 183.689L797.804 187.029ZM815.944 218.741L830.991 221.394L835.158 197.759L820.111 195.106L815.944 218.741ZM829.828 213.123L816.095 219.821L826.616 241.392L840.349 234.694L829.828 213.123ZM805.273 240.174L807.4 255.304L831.166 251.964L829.04 236.834L805.273 240.174ZM814.907 251.643L804.293 240.652L787.029 257.324L797.643 268.315L814.907 251.643ZM781.592 236.649L767.859 243.347L778.38 264.918L792.113 258.22L781.592 236.649ZM773.662 249.355L780.835 235.865L759.644 224.597L752.471 238.088L773.662 249.355ZM777.627 213.038L767.013 202.047L749.749 218.719L760.363 229.71L777.627 213.038ZM763.092 209.422L778.139 212.075L782.306 188.44L767.259 185.786L763.092 209.422ZM798.857 201.97L806.03 188.479L784.839 177.212L777.666 190.703L798.857 201.97ZM778.139 212.075C786.505 213.55 794.869 209.471 798.857 201.97L777.666 190.703C778.559 189.023 780.433 188.109 782.306 188.44L778.139 212.075ZM767.013 202.047C769.968 205.107 767.281 210.161 763.092 209.422L767.259 185.786C748.552 182.488 736.553 205.054 749.749 218.719L767.013 202.047ZM780.835 235.865C784.823 228.364 783.528 219.149 777.627 213.038L760.363 229.71C759.041 228.341 758.751 226.277 759.644 224.597L780.835 235.865ZM767.859 243.347C771.683 241.482 775.659 245.6 773.662 249.355L752.471 238.088C743.553 254.86 761.307 273.245 778.38 264.918L767.859 243.347ZM804.293 240.652C798.392 234.541 789.228 232.925 781.592 236.649L792.113 258.22C790.403 259.054 788.351 258.692 787.029 257.324L804.293 240.652ZM807.4 255.304C806.808 251.092 811.952 248.583 814.907 251.643L797.643 268.315C810.838 281.979 833.81 270.775 831.166 251.964L807.4 255.304ZM816.095 219.821C808.46 223.545 804.091 231.762 805.273 240.174L829.04 236.834C829.305 238.718 828.326 240.558 826.616 241.392L816.095 219.821ZM830.991 221.394C826.801 220.656 826.005 214.988 829.828 213.123L840.349 234.694C857.422 226.367 853.865 201.057 835.158 197.759L830.991 221.394ZM799.931 202.159C801.113 210.572 807.578 217.266 815.944 218.741L820.111 195.106C821.985 195.436 823.432 196.935 823.697 198.819L799.931 202.159ZM821.571 183.689C818.927 164.878 793.757 160.44 784.839 177.212L806.03 188.479C804.033 192.235 798.396 191.241 797.804 187.029L821.571 183.689ZM720.005 146.269L722.131 161.4L745.897 158.06L743.771 142.929L720.005 146.269ZM738.144 177.982L753.191 180.635L757.358 156.999L742.311 154.346L738.144 177.982ZM752.028 172.363L738.296 179.061L748.816 200.632L762.549 193.934L752.028 172.363ZM727.474 199.414L729.6 214.545L753.366 211.205L751.24 196.074L727.474 199.414ZM737.107 210.883L726.494 199.892L709.229 216.564L719.843 227.555L737.107 210.883ZM703.792 195.89L690.06 202.588L700.581 224.159L714.313 217.461L703.792 195.89ZM695.862 208.596L703.035 195.105L681.844 183.838L674.671 197.329L695.862 208.596ZM699.827 172.278L689.213 161.287L671.949 177.959L682.563 188.95L699.827 172.278ZM685.292 168.662L700.339 171.316L704.506 147.68L689.459 145.027L685.292 168.662ZM721.057 161.211L728.23 147.72L707.04 136.453L699.867 149.943L721.057 161.211ZM700.339 171.316C708.705 172.791 717.069 168.711 721.057 161.211L699.867 149.943C700.76 148.264 702.633 147.35 704.506 147.68L700.339 171.316ZM689.213 161.287C692.168 164.347 689.481 169.401 685.292 168.662L689.459 145.027C670.753 141.729 658.754 164.295 671.949 177.959L689.213 161.287ZM703.035 195.105C707.023 187.605 705.728 178.389 699.827 172.278L682.563 188.95C681.241 187.582 680.951 185.518 681.844 183.838L703.035 195.105ZM690.06 202.588C693.883 200.723 697.859 204.84 695.862 208.596L674.671 197.329C665.753 214.1 683.507 232.486 700.581 224.159L690.06 202.588ZM726.494 199.892C720.593 193.782 711.428 192.166 703.792 195.89L714.313 217.461C712.603 218.295 710.551 217.933 709.229 216.564L726.494 199.892ZM729.6 214.545C729.008 210.332 734.152 207.823 737.107 210.883L719.843 227.555C733.039 241.219 756.01 230.015 753.366 211.205L729.6 214.545ZM738.296 179.061C730.66 182.785 726.291 191.002 727.474 199.414L751.24 196.074C751.505 197.958 750.526 199.798 748.816 200.632L738.296 179.061ZM753.191 180.635C749.001 179.896 748.205 174.228 752.028 172.363L762.549 193.934C779.622 185.607 776.065 160.298 757.358 156.999L753.191 180.635ZM722.131 161.4C723.313 169.812 729.778 176.507 738.144 177.982L742.311 154.346C744.185 154.677 745.633 156.176 745.897 158.06L722.131 161.4ZM743.771 142.929C741.127 124.119 715.957 119.681 707.04 136.453L728.23 147.72C726.233 151.476 720.597 150.482 720.005 146.269L743.771 142.929ZM632.956 157.962L635.083 173.092L658.849 169.752L656.723 154.622L632.956 157.962ZM651.095 189.674L666.142 192.327L670.31 168.692L655.263 166.039L651.095 189.674ZM664.98 184.056L651.247 190.754L661.768 212.325L675.501 205.627L664.98 184.056ZM640.425 211.107L642.552 226.237L666.318 222.897L664.192 207.767L640.425 211.107ZM650.059 222.576L639.445 211.585L622.181 228.256L632.795 239.247L650.059 222.576ZM616.744 207.582L603.011 214.28L613.532 235.851L627.265 229.153L616.744 207.582ZM608.814 220.288L615.987 206.798L594.796 195.53L587.623 209.021L608.814 220.288ZM612.778 183.971L602.165 172.98L584.901 189.651L595.514 200.642L612.778 183.971ZM598.243 180.355L613.29 183.008L617.458 159.372L602.411 156.719L598.243 180.355ZM634.009 172.903L641.182 159.412L619.991 148.145L612.818 161.635L634.009 172.903ZM613.29 183.008C621.656 184.483 630.021 180.403 634.009 172.903L612.818 161.635C613.711 159.956 615.584 159.042 617.458 159.372L613.29 183.008ZM602.165 172.98C605.12 176.04 602.433 181.093 598.243 180.355L602.411 156.719C583.704 153.421 571.705 175.987 584.901 189.651L602.165 172.98ZM615.987 206.798C619.975 199.297 618.68 190.081 612.778 183.971L595.514 200.642C594.193 199.274 593.903 197.21 594.796 195.53L615.987 206.798ZM603.011 214.28C606.835 212.415 610.811 216.532 608.814 220.288L587.623 209.021C578.705 225.793 596.459 244.178 613.532 235.851L603.011 214.28ZM639.445 211.585C633.544 205.474 624.379 203.858 616.744 207.582L627.265 229.153C625.555 229.987 623.503 229.625 622.181 228.256L639.445 211.585ZM642.552 226.237C641.96 222.025 647.104 219.515 650.059 222.576L632.795 239.247C645.99 252.912 668.962 241.708 666.318 222.897L642.552 226.237ZM651.247 190.754C643.612 194.478 639.243 202.694 640.425 211.107L664.192 207.767C664.456 209.651 663.478 211.491 661.768 212.325L651.247 190.754ZM666.142 192.327C661.953 191.588 661.156 185.92 664.98 184.056L675.501 205.627C692.574 197.3 689.017 171.99 670.31 168.692L666.142 192.327ZM635.083 173.092C636.265 181.504 642.729 188.199 651.095 189.674L655.263 166.039C657.136 166.369 658.584 167.868 658.849 169.752L635.083 173.092ZM656.723 154.622C654.079 135.811 628.909 131.373 619.991 148.145L641.182 159.412C639.185 163.168 633.548 162.174 632.956 157.962L656.723 154.622ZM567.93 191.425L547.074 203.3L547.074 203.3L567.93 191.425ZM591.821 149.649L593.779 173.569L593.779 173.569L591.821 149.649ZM571.359 214.11L547.922 208.94L571.359 214.11ZM577.452 237.203L558.878 252.401L558.878 252.401L577.452 237.203ZM593.595 364.071L578.522 382.748L578.522 382.748L593.595 364.071ZM649.655 409.316L664.728 390.64L664.728 390.64L649.655 409.316ZM704.37 418.964L696.593 396.258L696.593 396.258L704.37 418.964ZM772.524 395.621L764.748 372.916L764.748 372.916L772.524 395.621ZM831.085 281.925L818.829 261.29L818.829 261.29L831.085 281.925ZM844.709 262.309L868.5 265.466L868.5 265.466L844.709 262.309ZM855.689 242.164L840.153 223.872L855.689 242.164ZM847.528 194.737L837.506 216.544L837.506 216.544L847.528 194.737ZM831.88 179.059L853.7 169.064L853.7 169.064L831.88 179.059ZM795.857 161.803L791.636 138.178L791.636 138.178L795.857 161.803ZM772.412 156.827L785.858 136.947L785.858 136.947L772.412 156.827ZM767.947 154.319L777.966 132.511L777.966 132.511L767.947 154.319ZM752.302 138.643L774.121 128.648L774.121 128.648L752.302 138.643ZM700.489 129.507L717.574 146.362L700.489 129.507ZM680.426 138.887L682.383 162.807L682.383 162.807L680.426 138.887ZM675.373 139.716L669.536 116.436L669.536 116.436L675.373 139.716ZM651.639 136.374L663.687 115.617L663.687 115.617L651.639 136.374ZM611.887 140.268L628.972 157.124L628.972 157.124L611.887 140.268ZM631.83 226.764L640.039 249.317L631.83 226.764ZM610.282 348.972L594.855 367.357L594.855 367.357L610.282 348.972ZM694.934 400.138L686.725 377.586L694.934 400.138ZM664.961 394.853L680.388 376.468L680.388 376.468L664.961 394.853ZM762.008 375.725L770.216 398.278L762.008 375.725ZM783.556 253.517L768.129 271.902L783.556 253.517ZM728.877 207.636L744.304 189.251L728.877 207.636ZM698.904 202.351L690.696 179.798L698.904 202.351ZM826.114 192.897L802.347 196.237L804.774 213.505L821.946 216.533L826.114 192.897ZM841.759 237.586L831.239 216.015L831.239 216.015L841.759 237.586ZM832.995 241.86L822.474 220.289L806.802 227.933L809.229 245.2L832.995 241.86ZM834.352 251.516L858.119 248.176L858.119 248.176L834.352 251.516ZM795.329 270.55L778.064 287.221L778.064 287.221L795.329 270.55ZM788.555 263.535L805.819 246.863L793.706 234.32L778.034 241.964L788.555 263.535ZM779.791 267.81L790.312 289.381L790.312 289.381L779.791 267.81ZM749.63 236.578L770.821 247.845L770.821 247.845L749.63 236.578ZM754.208 227.968L775.399 239.235L783.585 223.839L771.472 211.296L754.208 227.968ZM747.434 220.954L764.699 204.282L764.699 204.282L747.434 220.954ZM777.421 184.311L773.253 207.947L790.425 210.975L798.612 195.579L777.421 184.311ZM781.999 175.702L803.189 186.969L803.189 186.969L781.999 175.702ZM824.757 183.241L800.99 186.581L800.99 186.581L824.757 183.241ZM748.314 152.138L724.548 155.478L726.974 172.745L744.147 175.773L748.314 152.138ZM763.96 196.826L774.481 218.397L774.481 218.397L763.96 196.826ZM755.195 201.101L744.675 179.53L729.002 187.174L731.429 204.441L755.195 201.101ZM756.553 210.757L780.319 207.417L756.553 210.757ZM717.529 229.79L700.265 246.462L700.265 246.462L717.529 229.79ZM710.755 222.776L728.019 206.104L715.907 193.561L700.234 201.205L710.755 222.776ZM701.991 227.05L712.512 248.621L712.512 248.621L701.991 227.05ZM671.83 195.818L650.64 184.551L650.64 184.551L671.83 195.818ZM676.408 187.209L697.599 198.476L705.785 183.08L693.672 170.537L676.408 187.209ZM669.635 180.194L652.37 196.866L652.37 196.866L669.635 180.194ZM699.621 143.552L695.453 167.187L712.626 170.215L720.812 154.819L699.621 143.552ZM704.199 134.942L725.39 146.209L725.39 146.209L704.199 134.942ZM746.957 142.481L723.191 145.822L723.191 145.822L746.957 142.481ZM661.266 163.83L637.499 167.17L639.926 184.437L657.098 187.465L661.266 163.83ZM676.911 208.518L687.432 230.09L687.432 230.09L676.911 208.518ZM668.147 212.793L657.626 191.222L641.954 198.866L644.381 216.133L668.147 212.793ZM669.504 222.449L693.271 219.109L693.271 219.109L669.504 222.449ZM630.48 241.482L613.216 258.154L613.216 258.154L630.48 241.482ZM623.707 234.468L640.971 217.796L628.858 205.253L613.186 212.897L623.707 234.468ZM614.943 238.743L625.463 260.314L625.463 260.314L614.943 238.743ZM584.782 207.51L563.591 196.243L563.591 196.243L584.782 207.51ZM589.36 198.901L610.551 210.168L618.737 194.772L606.624 182.229L589.36 198.901ZM582.586 191.886L599.85 175.215L599.85 175.215L582.586 191.886ZM612.573 155.244L608.405 178.879L625.577 181.907L633.763 166.511L612.573 155.244ZM617.15 146.634L595.96 135.367L595.96 135.367L617.15 146.634ZM659.909 154.174L636.142 157.514L636.142 157.514L659.909 154.174ZM588.786 179.549C588.598 179.219 588.22 178.075 589.14 176.372C589.552 175.609 590.129 174.973 590.806 174.518C591.428 174.1 592.347 173.686 593.779 173.569L589.863 125.729C550.801 128.927 528.63 170.908 547.074 203.3L588.786 179.549ZM594.795 219.281C597.762 205.835 595.683 191.661 588.786 179.549L547.074 203.3C548.044 205.003 548.346 207.019 547.922 208.94L594.795 219.281ZM596.026 222.004C595.206 221.002 594.925 220.262 594.832 219.909C594.747 219.587 594.765 219.417 594.795 219.281L547.922 208.94C544.403 224.894 549.145 240.507 558.878 252.401L596.026 222.004ZM607.75 266.403C610.83 248.932 605.041 233.021 596.026 222.004L558.878 252.401C560.238 254.064 560.821 256.128 560.479 258.068L607.75 266.403ZM598.315 319.91L607.75 266.403L560.479 258.068L551.044 311.575L598.315 319.91ZM608.668 345.395C600.033 338.427 596.791 328.552 598.315 319.91L551.044 311.575C546.365 338.114 556.838 365.247 578.522 382.748L608.668 345.395ZM664.728 390.64L608.668 345.395L578.522 382.748L634.582 427.992L664.728 390.64ZM696.593 396.258C685.862 399.934 673.556 397.764 664.728 390.64L634.582 427.992C656.246 445.476 685.809 450.689 712.146 441.669L696.593 396.258ZM764.748 372.916L696.593 396.258L712.146 441.669L780.3 418.327L764.748 372.916ZM783.193 352.509C781.669 361.151 775.245 369.321 764.748 372.916L780.3 418.327C806.662 409.298 825.784 387.383 830.463 360.844L783.193 352.509ZM792.627 299.002L783.193 352.509L830.463 360.844L839.898 307.337L792.627 299.002ZM818.829 261.29C806.59 268.559 795.708 281.531 792.627 299.002L839.898 307.337C840.24 305.397 841.494 303.657 843.341 302.56L818.829 261.29ZM820.917 259.152C820.899 259.29 820.858 259.456 820.668 259.73C820.459 260.029 819.943 260.629 818.829 261.29L843.341 302.56C856.554 294.711 866.351 281.662 868.5 265.466L820.917 259.152ZM840.153 223.872C829.53 232.894 822.729 245.503 820.917 259.152L868.5 265.466C868.759 263.516 869.732 261.725 871.226 260.457L840.153 223.872ZM837.506 216.544C838.812 217.145 839.534 217.848 839.975 218.453C840.456 219.112 840.781 219.907 840.907 220.765C841.189 222.68 840.443 223.626 840.153 223.872L871.226 260.457C899.637 236.326 893.162 189.294 857.549 172.929L837.506 216.544ZM810.061 189.055C815.571 201.084 825.248 210.911 837.506 216.544L857.549 172.929C855.853 172.15 854.482 170.771 853.7 169.064L810.061 189.055ZM800.079 185.429C802.471 185.002 804.936 185.39 806.946 186.357C808.985 187.338 809.818 188.525 810.061 189.055L853.7 169.064C842.849 145.376 816.052 133.815 791.636 138.178L800.079 185.429ZM758.966 176.706C770.939 184.805 785.681 188.002 800.079 185.429L791.636 138.178C789.63 138.536 787.552 138.093 785.858 136.947L758.966 176.706ZM757.927 176.128C758.352 176.323 758.692 176.521 758.966 176.706L785.858 136.947C783.407 135.289 780.775 133.801 777.966 132.511L757.927 176.128ZM730.482 148.638C735.982 160.644 745.643 170.484 757.927 176.128L777.966 132.511C776.271 131.732 774.904 130.356 774.121 128.648L730.482 148.638ZM717.574 146.362C718.277 145.65 720.552 144.356 724.461 145.045C728.37 145.735 730.065 147.728 730.482 148.638L774.121 128.648C765.861 110.616 748.966 100.626 732.796 97.7747C716.626 94.9235 697.333 98.5327 683.404 112.652L717.574 146.362ZM682.383 162.807C695.857 161.705 708.3 155.763 717.574 146.362L683.404 112.652C682.084 113.99 680.329 114.815 678.47 114.967L682.383 162.807ZM681.209 162.995C681.53 162.915 681.917 162.845 682.383 162.807L678.47 114.967C675.389 115.219 672.407 115.717 669.536 116.436L681.209 162.995ZM639.592 157.131C652.241 164.473 667.188 166.51 681.209 162.995L669.536 116.436C667.553 116.933 665.449 116.639 663.687 115.617L639.592 157.131ZM628.972 157.124C629.381 156.709 630.57 155.878 632.821 155.654C635.041 155.433 637.49 155.911 639.592 157.131L663.687 115.617C642.235 103.166 613.1 104.865 594.802 123.413L628.972 157.124ZM593.779 173.569C607.225 172.468 619.679 166.543 628.972 157.124L594.802 123.413C593.483 124.75 591.723 125.576 589.863 125.729L593.779 173.569ZM713.45 226.021L768.129 271.902L798.983 235.132L744.304 189.251L713.45 226.021ZM770.33 277.949L757.935 348.243L805.206 356.578L817.601 286.284L770.33 277.949ZM753.799 353.173L686.725 377.586L703.142 422.691L770.216 398.278L753.799 353.173ZM680.388 376.468L625.709 330.587L594.855 367.357L649.534 413.238L680.388 376.468ZM623.508 324.54L635.903 254.246L588.632 245.911L576.237 316.205L623.508 324.54ZM640.039 249.317L707.113 224.904L690.696 179.798L623.622 204.211L640.039 249.317ZM635.903 254.246C636.302 251.982 637.879 250.103 640.039 249.317L623.622 204.211C605.347 210.863 592.009 226.758 588.632 245.911L635.903 254.246ZM625.709 330.587C623.948 329.109 623.109 326.804 623.508 324.54L576.237 316.205C572.86 335.357 579.957 354.856 594.855 367.357L625.709 330.587ZM686.725 377.586C684.565 378.372 682.149 377.946 680.388 376.468L649.534 413.238C664.432 425.739 684.867 429.342 703.142 422.691L686.725 377.586ZM757.935 348.243C757.536 350.507 755.959 352.386 753.799 353.173L770.216 398.278C788.491 391.626 801.829 375.731 805.206 356.578L757.935 348.243ZM768.129 271.902C769.89 273.38 770.729 275.685 770.33 277.949L817.601 286.284C820.978 267.132 813.881 247.633 798.983 235.132L768.129 271.902ZM744.304 189.251C729.406 176.75 708.971 173.147 690.696 179.798L707.113 224.904C709.273 224.117 711.689 224.543 713.45 226.021L744.304 189.251ZM839.884 170.955L830.281 169.262L821.946 216.533L831.549 218.226L839.884 170.955ZM852.28 259.157C893.051 239.272 884.557 178.832 839.884 170.955L831.549 218.226C831.723 218.256 831.65 218.267 831.441 218.152C831.24 218.041 831.043 217.884 830.885 217.71C830.735 217.546 830.66 217.41 830.626 217.337C830.595 217.269 830.591 217.237 830.591 217.233C830.59 217.229 830.585 217.198 830.596 217.123C830.608 217.044 830.644 216.893 830.742 216.693C830.846 216.482 830.992 216.278 831.155 216.115C831.324 215.947 831.397 215.937 831.239 216.015L852.28 259.157ZM843.516 263.431L852.28 259.157L831.239 216.015L822.474 220.289L843.516 263.431ZM858.119 248.176L856.762 238.52L809.229 245.2L810.586 254.857L858.119 248.176ZM778.064 287.221C809.575 319.852 864.432 293.096 858.119 248.176L810.586 254.857C810.61 255.031 810.578 254.965 810.623 254.731C810.666 254.505 810.754 254.27 810.871 254.066C810.981 253.872 811.087 253.758 811.146 253.704C811.201 253.653 811.23 253.64 811.234 253.638C811.237 253.637 811.266 253.622 811.34 253.61C811.419 253.597 811.574 253.583 811.794 253.615C812.027 253.649 812.266 253.725 812.471 253.83C812.683 253.938 812.715 254.004 812.593 253.878L778.064 287.221ZM771.291 280.207L778.064 287.221L812.593 253.878L805.819 246.863L771.291 280.207ZM790.312 289.381L799.076 285.106L778.034 241.964L769.27 246.239L790.312 289.381ZM728.439 225.31C707.144 265.362 749.541 309.266 790.312 289.381L769.27 246.239C769.112 246.316 769.164 246.265 769.401 246.235C769.629 246.207 769.88 246.218 770.11 246.265C770.328 246.311 770.469 246.376 770.539 246.415C770.604 246.452 770.626 246.476 770.629 246.478C770.631 246.481 770.654 246.504 770.689 246.57C770.726 246.642 770.786 246.785 770.824 247.004C770.863 247.236 770.866 247.487 770.829 247.714C770.791 247.95 770.738 248 770.821 247.845L728.439 225.31ZM733.017 216.701L728.439 225.31L770.821 247.845L775.399 239.235L733.017 216.701ZM730.17 237.625L736.944 244.64L771.472 211.296L764.699 204.282L730.17 237.625ZM771.985 158.983C727.313 151.106 698.659 204.995 730.17 237.625L764.699 204.282C764.576 204.155 764.641 204.189 764.742 204.405C764.84 204.613 764.907 204.856 764.933 205.089C764.957 205.31 764.939 205.465 764.923 205.543C764.908 205.617 764.892 205.645 764.891 205.648C764.889 205.652 764.874 205.68 764.822 205.734C764.765 205.791 764.648 205.893 764.451 205.996C764.243 206.106 764.004 206.185 763.777 206.221C763.541 206.258 763.477 206.223 763.65 206.253L771.985 158.983ZM781.588 160.676L771.985 158.983L763.65 206.253L773.253 207.947L781.588 160.676ZM760.808 164.434L756.23 173.044L798.612 195.579L803.189 186.969L760.808 164.434ZM848.523 179.901C842.21 134.981 782.104 124.382 760.808 164.434L803.189 186.969C803.272 186.813 803.26 186.886 803.086 187.049C802.918 187.206 802.708 187.345 802.494 187.441C802.291 187.533 802.138 187.563 802.059 187.572C801.984 187.581 801.953 187.574 801.949 187.574C801.945 187.573 801.913 187.568 801.846 187.535C801.775 187.499 801.642 187.418 801.482 187.263C801.314 187.099 801.165 186.897 801.06 186.691C800.953 186.479 800.966 186.407 800.99 186.581L848.523 179.901ZM849.88 189.557L848.523 179.901L800.99 186.581L802.347 196.237L849.88 189.557ZM762.085 130.196L752.482 128.502L744.147 175.773L753.75 177.466L762.085 130.196ZM774.481 218.397C815.251 198.512 806.757 138.073 762.085 130.196L753.75 177.466C753.923 177.497 753.85 177.508 753.642 177.392C753.44 177.281 753.243 177.125 753.085 176.951C752.936 176.786 752.86 176.65 752.827 176.577C752.795 176.509 752.791 176.477 752.791 176.474C752.79 176.47 752.785 176.438 752.797 176.364C752.809 176.285 752.844 176.133 752.942 175.934C753.046 175.723 753.192 175.518 753.355 175.356C753.524 175.188 753.597 175.178 753.439 175.255L774.481 218.397ZM765.716 222.672L774.481 218.397L753.439 175.255L744.675 179.53L765.716 222.672ZM780.319 207.417L778.962 197.761L731.429 204.441L732.786 214.097L780.319 207.417ZM700.265 246.462C731.776 279.093 786.632 252.337 780.319 207.417L732.786 214.097C732.811 214.272 732.778 214.206 732.823 213.972C732.867 213.746 732.954 213.51 733.071 213.306C733.181 213.113 733.287 212.999 733.346 212.945C733.401 212.894 733.431 212.88 733.434 212.879C733.437 212.877 733.466 212.862 733.54 212.85C733.619 212.837 733.774 212.824 733.994 212.856C734.227 212.89 734.466 212.965 734.671 213.07C734.884 213.179 734.915 213.245 734.793 213.118L700.265 246.462ZM693.491 239.448L700.265 246.462L734.793 213.118L728.019 206.104L693.491 239.448ZM712.512 248.621L721.276 244.347L700.234 201.205L691.47 205.479L712.512 248.621ZM650.64 184.551C629.344 224.602 671.741 268.507 712.512 248.621L691.47 205.479C691.312 205.557 691.364 205.505 691.601 205.476C691.829 205.447 692.08 205.458 692.31 205.506C692.528 205.551 692.669 205.617 692.739 205.656C692.805 205.693 692.827 205.716 692.829 205.719C692.832 205.722 692.855 205.744 692.889 205.811C692.926 205.882 692.986 206.026 693.024 206.245C693.064 206.476 693.066 206.728 693.029 206.955C692.992 207.19 692.939 207.241 693.021 207.086L650.64 184.551ZM655.218 175.941L650.64 184.551L693.021 207.086L697.599 198.476L655.218 175.941ZM652.37 196.866L659.144 203.88L693.672 170.537L686.899 163.522L652.37 196.866ZM694.186 118.223C649.514 110.346 620.859 164.235 652.37 196.866L686.899 163.522C686.776 163.396 686.841 163.43 686.943 163.646C687.04 163.854 687.107 164.096 687.133 164.33C687.158 164.551 687.139 164.705 687.123 164.784C687.108 164.858 687.093 164.886 687.091 164.889C687.089 164.892 687.074 164.921 687.022 164.974C686.966 165.031 686.848 165.133 686.651 165.237C686.443 165.346 686.205 165.426 685.977 165.461C685.742 165.498 685.677 165.463 685.85 165.494L694.186 118.223ZM703.789 119.916L694.186 118.223L685.85 165.494L695.453 167.187L703.789 119.916ZM683.008 123.675L678.43 132.284L720.812 154.819L725.39 146.209L683.008 123.675ZM770.723 139.141C764.41 94.2216 704.304 83.6227 683.008 123.675L725.39 146.209C725.472 146.054 725.46 146.126 725.286 146.289C725.118 146.446 724.908 146.585 724.694 146.682C724.491 146.773 724.339 146.803 724.259 146.813C724.185 146.821 724.153 146.815 724.149 146.814C724.146 146.814 724.114 146.809 724.047 146.775C723.975 146.739 723.842 146.659 723.682 146.503C723.514 146.339 723.365 146.137 723.261 145.932C723.153 145.719 723.166 145.647 723.191 145.822L770.723 139.141ZM772.081 148.798L770.723 139.141L723.191 145.822L724.548 155.478L772.081 148.798ZM675.036 141.888L665.433 140.195L657.098 187.465L666.701 189.159L675.036 141.888ZM687.432 230.09C728.203 210.204 719.709 149.765 675.036 141.888L666.701 189.159C666.875 189.189 666.802 189.2 666.593 189.085C666.392 188.973 666.195 188.817 666.037 188.643C665.887 188.479 665.811 188.343 665.778 188.27C665.747 188.202 665.743 188.169 665.742 188.166C665.742 188.162 665.737 188.13 665.748 188.056C665.76 187.977 665.795 187.825 665.894 187.626C665.998 187.415 666.144 187.211 666.307 187.048C666.476 186.88 666.549 186.87 666.39 186.947L687.432 230.09ZM678.668 234.364L687.432 230.09L666.39 186.947L657.626 191.222L678.668 234.364ZM693.271 219.109L691.913 209.453L644.381 216.133L645.738 225.789L693.271 219.109ZM613.216 258.154C644.727 290.785 699.584 264.029 693.271 219.109L645.738 225.789C645.762 225.964 645.73 225.898 645.775 225.664C645.818 225.438 645.906 225.202 646.023 224.998C646.133 224.805 646.239 224.691 646.298 224.637C646.353 224.586 646.382 224.573 646.385 224.571C646.389 224.569 646.418 224.555 646.491 224.542C646.571 224.529 646.726 224.516 646.946 224.548C647.178 224.582 647.418 224.658 647.623 224.762C647.835 224.871 647.867 224.937 647.745 224.811L613.216 258.154ZM606.443 251.14L613.216 258.154L647.745 224.811L640.971 217.796L606.443 251.14ZM625.463 260.314L634.228 256.039L613.186 212.897L604.422 217.172L625.463 260.314ZM563.591 196.243C542.296 236.295 584.692 280.199 625.463 260.314L604.422 217.172C604.263 217.249 604.316 217.197 604.552 217.168C604.781 217.14 605.032 217.15 605.262 217.198C605.48 217.243 605.621 217.309 605.691 217.348C605.756 217.385 605.778 217.409 605.781 217.411C605.783 217.414 605.806 217.437 605.841 217.503C605.877 217.574 605.938 217.718 605.976 217.937C606.015 218.169 606.017 218.42 605.981 218.647C605.943 218.883 605.89 218.933 605.973 218.778L563.591 196.243ZM568.169 187.633L563.591 196.243L605.973 218.778L610.551 210.168L568.169 187.633ZM565.322 208.558L572.096 215.573L606.624 182.229L599.85 175.215L565.322 208.558ZM607.137 129.915C562.465 122.038 533.811 175.928 565.322 208.558L599.85 175.215C599.728 175.088 599.793 175.122 599.894 175.338C599.992 175.546 600.059 175.788 600.085 176.022C600.109 176.243 600.09 176.398 600.075 176.476C600.06 176.55 600.044 176.578 600.042 176.581C600.041 176.584 600.026 176.613 599.973 176.667C599.917 176.724 599.799 176.826 599.602 176.929C599.394 177.038 599.156 177.118 598.929 177.154C598.693 177.191 598.629 177.156 598.802 177.186L607.137 129.915ZM616.74 131.609L607.137 129.915L598.802 177.186L608.405 178.879L616.74 131.609ZM595.96 135.367L591.382 143.977L633.763 166.511L638.341 157.902L595.96 135.367ZM683.675 150.834C677.362 105.914 617.256 95.3149 595.96 135.367L638.341 157.902C638.424 157.746 638.412 157.819 638.238 157.981C638.069 158.139 637.86 158.277 637.646 158.374C637.443 158.466 637.29 158.495 637.211 158.505C637.136 158.513 637.104 158.507 637.101 158.507C637.097 158.506 637.065 158.501 636.998 158.467C636.927 158.431 636.793 158.351 636.634 158.196C636.466 158.032 636.316 157.83 636.212 157.624C636.104 157.412 636.118 157.34 636.142 157.514L683.675 150.834ZM685.032 160.49L683.675 150.834L636.142 157.514L637.499 167.17L685.032 160.49Z" fill="#FDA223" mask="url(#path-2-outside-1_4486_1056)"/>
<path d="M640.521 331.921C635.615 330.954 631.496 329.263 628.165 326.848C624.833 324.433 622.617 321.452 621.516 317.907C621.133 316.621 621.02 315.535 621.177 314.649C621.507 312.778 622.555 311.44 624.322 310.634C626.088 309.829 627.809 309.574 629.483 309.869C630.566 310.06 631.516 310.43 632.333 310.981C633.15 311.531 633.669 312.333 633.889 313.387C634.984 317.541 637.994 320.051 642.918 320.92C645.479 321.371 647.735 320.957 649.687 319.676C651.755 318.315 653.006 316.403 653.44 313.941C654.447 308.229 650.936 304.817 642.907 303.706C641.117 303.492 639.767 302.797 638.858 301.621C637.965 300.347 637.667 298.873 637.962 297.199C638.257 295.524 638.984 294.282 640.142 293.471C641.399 292.677 642.816 292.419 644.391 292.697C647.937 293.322 650.485 293.264 652.038 292.522C653.689 291.797 654.731 290.204 655.165 287.742C655.513 285.773 655.124 284.232 654 283.12C652.894 281.909 651.503 281.156 649.829 280.861C648.253 280.583 646.666 280.659 645.067 281.088C643.469 281.517 642.113 282.293 641.001 283.417C640.138 284.28 639.229 284.831 638.273 285.068C637.335 285.208 636.373 285.19 635.388 285.017C633.714 284.721 632.274 283.96 631.069 282.732C629.98 281.423 629.583 279.931 629.878 278.257C630 277.568 630.269 276.904 630.686 276.267C632.817 273.394 635.754 271.424 639.496 270.357C643.337 269.308 647.374 269.157 651.609 269.904C657.419 270.928 661.828 273.28 664.835 276.958C667.859 280.537 668.937 284.789 668.069 289.713C667.253 294.342 664.745 297.91 660.546 300.419C662.881 302.151 664.601 304.485 665.708 307.422C666.832 310.26 667.143 313.107 666.639 315.963C665.58 321.971 662.603 326.472 657.708 329.468C652.93 332.382 647.201 333.2 640.521 331.921ZM691.905 340.981C685.307 339.817 680.305 336.803 676.898 331.937C673.607 326.991 672.534 321.268 673.68 314.768C674.705 308.958 676.917 303.61 680.317 298.727C683.716 293.843 687.643 289.712 692.097 286.334C696.65 282.974 700.963 280.688 705.035 279.476C706.321 279.094 707.505 278.998 708.589 279.189C710.46 279.519 711.873 280.428 712.829 281.917C713.786 283.406 714.125 284.938 713.847 286.514C713.517 288.385 712.361 289.755 710.38 290.624C709.077 291.105 707.038 292.015 704.263 293.353C701.605 294.611 698.865 296.615 696.044 299.367C695.928 299.449 695.902 299.596 695.966 299.811C696.03 300.025 696.16 300.149 696.357 300.184C697.278 300.144 698.141 300.143 698.947 300.184C699.769 300.126 700.525 300.158 701.214 300.279C705.055 300.956 708.346 302.45 711.086 304.761C713.826 307.072 715.765 309.902 716.9 313.25C718.135 316.615 718.413 320.219 717.736 324.059C716.659 330.165 713.657 334.814 708.727 338.007C703.914 341.118 698.307 342.11 691.905 340.981ZM693.694 329.111C696.648 329.632 699.11 329.203 701.079 327.824C703.147 326.462 704.424 324.403 704.91 321.646C705.414 318.79 704.918 316.417 703.424 314.529C702.045 312.56 699.878 311.315 696.923 310.794C694.166 310.308 691.803 310.754 689.833 312.133C687.98 313.431 686.801 315.508 686.298 318.364C685.811 321.121 686.208 323.476 687.489 325.428C688.868 327.397 690.936 328.625 693.694 329.111ZM739.561 349.384C737.099 348.95 734.649 348.162 732.21 347.022C729.771 345.881 727.549 344.372 725.545 342.495C723.048 340.532 722.051 338.122 722.555 335.266C722.85 333.592 723.759 332.179 725.282 331.026C726.823 329.774 728.381 329.287 729.957 329.565C731.533 329.843 732.865 330.636 733.954 331.945C735.304 333.504 736.764 334.726 738.334 335.612C740.003 336.515 741.625 337.106 743.201 337.384C745.761 337.835 748.058 337.479 750.091 336.314C752.24 335.068 753.575 332.968 754.096 330.014C754.652 326.862 754.049 324.522 752.288 322.993C750.544 321.365 748.244 320.3 745.388 319.796C743.615 319.484 741.709 319.351 739.67 319.397C737.631 319.444 735.583 319.54 733.527 319.685C732.148 319.442 731.085 318.848 730.338 317.904C729.59 316.96 729.471 315.619 729.981 313.881L736.339 293.373C737.086 290.865 738.088 289.214 739.344 288.42C740.619 287.528 741.864 287.087 743.081 287.099C744.396 287.128 745.595 287.238 746.678 287.429C746.777 287.446 746.826 287.455 746.826 287.455L765.143 290.684C767.113 291.032 768.544 291.843 769.436 293.117C770.444 294.31 770.792 295.793 770.479 297.566C770.149 299.437 769.289 300.859 767.899 301.832C766.526 302.707 764.905 302.98 763.033 302.65L749.591 300.28C748.114 300.019 747.097 300.601 746.541 302.027L744.005 309.5C746.096 309.158 748.323 309.195 750.687 309.612C754.134 310.219 757.195 311.572 759.872 313.668C762.647 315.782 764.727 318.383 766.112 321.47C767.595 324.575 768.016 327.949 767.373 331.593C766.557 336.222 764.721 340.011 761.866 342.96C759.028 345.81 755.631 347.8 751.674 348.93C747.735 349.962 743.698 350.113 739.561 349.384Z" fill="white"/>
<path d="M862.563 665.339C862.125 670.341 861.276 675.197 860.054 679.879L859.704 681.179C858.948 683.901 858.065 686.562 857.064 689.158L840.846 738.177C840.682 738.671 840.588 739.184 840.551 739.702C840.535 739.919 840.518 740.137 840.499 740.355L837.228 777.749C835.313 799.631 817.414 816.274 796.043 817.179C794.464 817.246 793.179 818.542 793.243 820.121L793.889 836.122C794.433 849.573 794.789 858.391 795.021 864.176C795.267 870.338 795.379 873.248 795.423 874.649L795.423 874.663C795.43 874.844 795.5 876.64 795.411 878.409C795.364 879.355 795.279 880.297 795.157 881.233C795.099 881.724 795.033 882.213 794.958 882.698L793.868 887.769C788.402 907.373 769.61 921.043 748.458 919.193L534.07 900.436C510.286 898.355 492.688 877.383 494.769 853.598L500.347 794.925L529.569 661.491C534.228 640.279 553.908 625.797 575.567 627.692L587.067 628.698C589.989 628.953 592.647 626.999 593.274 624.134L595.415 614.347C600.075 593.135 619.755 578.653 641.414 580.548L688.111 584.633C694.829 585.221 702.471 588.841 707.949 592.13C710.387 593.593 717.635 592.055 719.826 590.241C734.304 578.253 752.968 571.319 772.722 570.645C824.537 568.787 867.152 612.883 862.563 665.339Z" fill="white" stroke="#FDA223" stroke-width="24"/>
<g clip-path="url(#clip0_4486_1056)">
<path d="M760.437 876.83C760.042 881.353 756.06 884.719 751.516 884.321L537.128 865.565C532.6 865.168 529.246 861.172 529.643 856.643C534.542 800.639 534.221 803.901 534.393 803.096L563.761 668.994C564.649 664.95 568.401 662.192 572.525 662.553L619.794 666.688C627.671 630.704 625.431 640.939 629.608 621.85C630.496 617.806 634.248 615.048 638.371 615.409L690.874 620.002C694.9 620.355 698.079 623.575 698.371 627.607C699.899 648.574 701.475 670.254 703.027 691.605L739.555 694.801C744.084 695.197 747.437 699.194 747.041 703.722C746.645 708.251 755.998 765.06 756.185 769.601C760.768 883.364 760.509 876.011 760.437 876.83Z" fill="#FFCA3A"/>
<path d="M631.268 767.848C626.821 768.302 622.716 765.062 622.252 760.473L613.007 668.476C612.882 667.229 613.922 666.175 615.172 666.284L618.042 666.535C619.043 666.623 619.955 665.953 620.17 664.97L623.679 648.942C624.165 646.719 627.395 646.905 627.622 649.17L638.642 758.832C639.095 763.352 635.794 767.389 631.268 767.848Z" fill="#FDA223"/>
<path d="M588.154 786.263C583.623 785.866 580.272 781.872 580.668 777.342L582.199 759.841C582.596 755.31 586.59 751.958 591.121 752.355C595.651 752.751 599.003 756.745 598.606 761.276L597.075 778.777C596.679 783.308 592.685 786.659 588.154 786.263Z" fill="#FDA223"/>
<path d="M668.664 666.004L667.132 683.505C666.736 688.033 662.74 691.387 658.211 690.991C653.683 690.595 650.329 686.598 650.725 682.07L652.256 664.569C652.653 660.04 656.649 656.687 661.178 657.083C665.706 657.479 669.06 661.476 668.664 666.004Z" fill="#FDA223"/>
<path d="M610.961 827.936C606.43 827.54 603.078 823.546 603.475 819.015L605.006 801.514C605.402 796.984 609.397 793.632 613.927 794.028C618.458 794.425 621.809 798.419 621.413 802.95L619.882 820.451C619.486 824.981 615.491 828.333 610.961 827.936Z" fill="#FDA223"/>
<path d="M707.599 831.983C703.068 831.587 699.717 827.592 700.113 823.062L701.644 805.561C702.04 801.03 706.035 797.679 710.565 798.075C715.096 798.471 718.448 802.466 718.051 806.996L716.52 824.497C716.124 829.028 712.129 832.379 707.599 831.983Z" fill="#FDA223"/>
<path d="M794.399 746.995C789.101 746.532 785.624 741.245 787.291 736.203L810.412 666.32C811.841 662.002 816.499 659.659 820.817 661.088C825.135 662.517 824.736 666.91 823.295 671.266L824.194 677.1C821.574 685.019 805.573 733.382 802.928 741.376C801.705 745.072 798.115 747.321 794.399 746.995Z" fill="#CCCCCC"/>
<path d="M741.882 742.401C738.168 742.076 735.024 739.241 734.459 735.392L724.391 666.815L725.24 663.719C723.434 651.423 738.804 651.605 740.224 661.274L750.754 732.999C751.528 738.267 747.175 742.864 741.882 742.401Z" fill="#CCCCCC"/>
<path d="M827.704 662.283C824.971 693.528 795.344 715.267 764.931 708.754C739.521 703.39 721.472 679.706 723.792 653.192C726.112 626.678 747.998 606.489 773.954 605.618C804.907 604.49 830.448 630.916 827.704 662.283Z" fill="#FF4745"/>
<path d="M805.975 733.481C806.071 732.38 805.257 731.41 804.156 731.314L734.995 725.263C733.895 725.167 732.925 725.981 732.829 727.081L729.223 768.294C728.827 772.825 732.178 776.819 736.709 777.216L793.448 782.18C797.978 782.576 801.972 779.224 802.369 774.694L805.975 733.481Z" fill="#7E65A2"/>
<path d="M704.666 691.749C705.827 691.85 706.634 692.95 706.383 694.088L676.214 830.857C675.316 834.945 671.526 837.644 667.468 837.289C662.512 836.856 659.058 832.173 660.135 827.312L696.863 660.828C697.36 658.576 700.644 658.814 700.811 661.114L702.909 689.966C702.978 690.911 703.722 691.666 704.666 691.749Z" fill="#FDA223"/>
</g>
<path fill-rule="evenodd" clip-rule="evenodd" d="M292.848 185.633L286.738 150.985C282.822 128.776 261.644 113.946 239.435 117.862L234.767 118.686C212.558 122.602 197.729 143.78 201.645 165.989L207.754 200.637C221.337 277.667 208.466 353.144 175.673 417.904C160.9 447.077 185.051 482.851 219.276 476.816L254.433 470.617C277.724 466.51 288.915 445.698 288.513 428.518C288.477 426.955 289.644 425.537 291.23 425.257C292.817 424.977 294.399 425.911 294.899 427.392C300.397 443.674 318.031 459.403 341.322 455.296L376.48 449.097C410.705 443.062 421.164 401.186 397.304 378.824C344.339 329.186 306.43 262.663 292.848 185.633Z" fill="white" stroke="#FDA223" stroke-width="24"/>
<g clip-path="url(#clip1_4486_1056)">
<path d="M258.151 191.748L252.418 159.234C251.651 154.883 247.501 151.978 243.15 152.745L242.75 152.816C238.399 153.583 235.494 157.732 236.261 162.083L241.994 194.597C256.655 277.743 243.287 359.345 208.683 429.719C205.723 435.739 210.804 442.768 217.41 441.603L245.994 436.563C250.345 435.796 253.158 431.623 253.305 427.207C253.898 409.505 266.786 394.025 284.924 390.827C303.063 387.628 320.468 397.767 327.079 414.199C328.728 418.298 332.799 421.257 337.15 420.49L365.733 415.45C372.34 414.285 374.71 405.942 369.87 401.297C313.284 347.003 272.812 274.894 258.151 191.748ZM283.067 333.053C283.834 337.404 280.929 341.553 276.578 342.32L276.177 342.391C271.826 343.158 267.677 340.253 266.91 335.902L263.99 319.345C263.223 314.994 266.128 310.844 270.48 310.077L270.88 310.006C275.231 309.239 279.38 312.145 280.147 316.496L283.067 333.053Z" fill="#1E95D8"/>
<path d="M322.256 350.923C323.712 350.667 324.397 348.972 323.536 347.769C320.913 344.103 318.351 340.386 315.854 336.618C315.413 335.953 314.62 335.61 313.834 335.749L238.921 348.958C238.135 349.097 237.507 349.69 237.32 350.466C236.262 354.861 235.126 359.229 233.915 363.572C233.518 364.996 234.741 366.355 236.197 366.098L322.256 350.923Z" fill="#1672B0"/>
</g>
<path opacity="0.22" d="M294 802C327.137 802 354 775.137 354 742C354 708.863 327.137 682 294 682C260.863 682 234 708.863 234 742C234 775.137 260.863 802 294 802Z" fill="#FDA223"/>
<path d="M293.999 776.79C313.215 776.79 328.793 761.212 328.793 741.996C328.793 722.781 313.215 707.203 293.999 707.203C274.784 707.203 259.206 722.781 259.206 741.996C259.206 761.212 274.784 776.79 293.999 776.79Z" fill="#FFC22A" stroke="#FDA223" stroke-width="24" stroke-miterlimit="10"/>
<path d="M266 510C257 604.5 456.501 542.5 357.999 687" stroke="#7F7F7F" stroke-width="24" stroke-linecap="round" stroke-dasharray="30 60"/>
<path d="M399.5 311.002C451 299.004 528.5 359.999 482 453.499C445.914 526.06 487.5 574.501 540.5 600.001" stroke="#7F7F7F" stroke-width="24" stroke-linecap="round" stroke-dasharray="30 60"/>
<path d="M668.5 461C663 495.5 649.5 500 700 551.5" stroke="#7F7F7F" stroke-width="24" stroke-linecap="round" stroke-dasharray="30 60"/>
<defs>
<clipPath id="clip0_4486_1056">
<rect width="279.997" height="279.997" fill="white" transform="translate(553.321 585.915) rotate(5)"/>
</clipPath>
<clipPath id="clip1_4486_1056">
<rect width="280" height="280" fill="white" transform="translate(105.077 177.091) rotate(-10)"/>
</clipPath>
</defs>
</svg>